<svg  viewBox="0 0 1500 1500" xmlns="http://www.w3.org/2000/svg">
<defs>
    <style>
        .d{fill:url(#c);}
        .e{fill:url(#b);}
        .f{fill:#00f9e4;}
        .g{fill:#00ecec;}
        .h{fill:#00435a;}
        .i{fill:#00d2d0;}
        .j{fill:#00bdc0;}
        .k{fill:#fff;}
        .l{fill:#171717;}
    </style>
    <radialGradient id="b" cx="595.87" cy="883.51" fx="595.87" fy="883.51" r="177.18" gradientTransform="matrix(1, 0, 0, 1, 0, 0)" gradientUnits="userSpaceOnUse">
        <stop offset=".13" stop-color="#00a9a9"/>
        <stop offset=".78" stop-color="#00cfce"/>
        <stop offset=".82" stop-color="#00d2d0"/>
        <stop offset=".99" stop-color="#fff"/>
    </radialGradient>
    <radialGradient id="c" cx="-196.36" cy="883.5" fx="-196.36" fy="883.5" r="177.19" gradientTransform="translate(713.64) rotate(-180) scale(1 -1)"/>
</defs>

<path class="k" d="M787.57,927.49c-11.29,6.53-22.28,13.6-34.05,19.3,0,50.85,0,101.7-.01,152.55,2.61,.57,2.81-1.93,3.72-3.19,27.19-37.49,54.29-75.04,81.41-112.58,34.19-47.31,70.44-100.66,104.6-148"/>
<path class="k" d="M751.25,945.41c-49.15-28.51-98.28-57.06-147.46-85.51-12.94-7.48-25.61-15.44-38.97-22.17l.06-.07c-.12,2.12,1.52,3.35,2.57,4.8,51.45,71.29,102.93,142.57,154.44,213.81,10.55,14.59,21.29,29.05,31.94,43.57,0-50.94,0-101.88,.01-152.81-.86-.55-1.71-1.12-2.59-1.64Z"/>
<polygon class="k" points="754.27 911.48 563.14 799.74 754 490.27 944.86 800.01 754.27 911.48"/>
<circle class="l" cx="750" cy="750" r="750"/>
<path class="i" d="M901.42,732.67c-29.78,31.54-7.6,44.31-26.9,59.03l-19.59,31.84c-3.41,3.72-6.83,7.45-10.24,11.17,.85,.34,1.8,.7,2.71,1.05-1.21,1.96-2.42,3.93-3.63,5.89,3.05,.89,6.45,1.79,10.03,2.68-1.44,.5-2.9,1.01-4.23,1.46-8.84,7.11-17.67,14.22-26.51,21.33,11.73,3.84,29.05,8.65,50.36,11.38,38.73,4.96,73.51,.83,104.32-6.84l-60.44,57.56,201.78-91.85,12.69-32.59c7.91-3.98,17.25-8.45,28.69-13.62,32.13-14.52,60.47-25.36,80.91-32.7,1.32-.47,1.07-2.41-.32-2.61-23.92-3.44-55.65-6.54-75.5-8.34-3.79-.34-18.47,.42,1.24-8.31l8.73-5.22c10.68-7.86,23.87-17.03,41.5-28.36,32.51-20.9,61.46-37.17,83.5-48.86,3.84-2.04,2.78-7.79-1.53-8.4-21.08-2.99-40.58-5.16-58.68-6.65-3.39-.28-5.28-4.01-3.49-6.91l6.37-10.31c7.36-7.53,15.67-15.78,25.19-24.95,36.92-35.54,70.04-45.25,94.87-60.38,3.56-2.17,2.05-7.64-2.12-7.71-27.15-.47-51.75-.23-74.19,.6l-197.48-.33-187.03,184.4"/>
<path class="i" d="M598.58,732.67c29.78,31.54,7.6,44.31,26.9,59.03l19.59,31.84c3.41,3.72,6.83,7.45,10.24,11.17-.85,.34-1.8,.7-2.71,1.05,1.21,1.96,2.42,3.93,3.63,5.89-3.05,.89-6.45,1.79-10.03,2.68,1.44,.5,2.9,1.01,4.23,1.46,8.84,7.11,17.67,14.22,26.51,21.33-11.73,3.84-29.05,8.65-50.36,11.38-38.73,4.96-73.51,.83-104.32-6.84l60.44,57.56-201.78-91.85-12.69-32.59c-7.91-3.98-17.25-8.45-28.69-13.62-32.13-14.52-60.47-25.36-80.91-32.7-1.32-.47-1.07-2.41,.32-2.61,23.92-3.44,55.65-6.54,75.5-8.34,3.79-.34,18.47,.42-1.24-8.31l-8.73-5.22c-10.68-7.86-23.87-17.03-41.5-28.36-32.51-20.9-61.46-37.17-83.5-48.86-3.84-2.04-2.78-7.79,1.53-8.4,21.08-2.99,40.58-5.16,58.68-6.65,3.39-.28,5.28-4.01,3.49-6.91l-6.37-10.31c-7.36-7.53-15.67-15.78-25.19-24.95-36.92-35.54-70.04-45.25-94.87-60.38-3.56-2.17-2.05-7.64,2.12-7.71,27.15-.47,51.75-.23,74.19,.6l197.48-.33,187.03,184.4"/>
<polygon class="k" points="347.99 531.84 410.52 531.74 597.55 716.14 463.6 655.26 347.99 531.84"/>
<polygon class="i" points="393.19 842.96 443.46 867.48 460.23 790.03 459.89 663.65 393.19 842.96"/>
<polygon class="f" points="347.99 531.84 326.03 651.05 380.91 837.37 463.6 655.26 347.99 531.84"/>
<polygon class="h" points="521.24 901.42 466.1 790.03 443.46 867.48 521.24 901.42"/>
<polyline class="g" points="326.03 651.05 261.05 641.38 136.73 539.18 129.22 489.83 347.99 531.84"/>
<polygon class="j" points="185.18 648.96 362.77 757.24 326.03 651.05 261.05 641.38 185.18 648.96"/>
<polygon class="i" points="252.15 755.54 380.91 837.37 362.77 757.24 344.04 745.82 252.15 755.54"/>
<polygon class="h" points="754.89 867.48 754.7 1177.5 930.26 1011.27 959.84 721.38 754.89 867.48"/>
<polygon class="e" points="549.54 721.4 466.1 790.03 575.61 1011.27 549.54 721.4"/>
<polygon class="h" points="754.7 1177.5 575.61 1011.27 549.54 721.4 754.51 861.7 754.7 1177.5"/>
<polygon class="d" points="959.84 721.38 1039.77 790.03 930.26 1011.27 959.84 721.38"/>
<polygon class="k" points="1152.01 531.84 1089.48 531.74 902.45 716.14 1036.4 655.26 1152.01 531.84"/>
<polygon class="f" points="1152.01 531.84 1173.97 651.05 1119.09 837.37 1036.4 655.26 1152.01 531.84"/>
<polygon class="i" points="1106.81 842.96 1056.54 867.48 1039.77 790.03 1040.11 663.65 1106.81 842.96"/>
<polygon class="h" points="985.93 898.79 1039.77 790.03 1056.54 867.48 985.93 898.79"/>
<polyline class="g" points="1173.97 651.05 1238.96 641.38 1363.27 539.18 1370.78 489.83 1152.01 531.84"/>
<polygon class="j" points="1314.82 648.96 1137.23 757.24 1173.97 651.05 1238.96 641.38 1314.82 648.96"/>
<polygon class="i" points="1247.85 755.54 1119.09 837.37 1137.23 757.24 1155.96 745.82 1247.85 755.54"/>
<polygon class="k" points="1366.48 518.11 1370.78 489.83 1152.01 531.84 1156.97 558.76 1366.48 518.11"/>
<polygon class="k" points="133.52 518.11 129.22 489.83 347.99 531.84 343.03 558.76 133.52 518.11"/>
<path class="k" d="M789.49,928.49c-11.29,6.53-22.28,13.6-34.05,19.3,0,50.85,0,101.7-.01,152.55,2.61,.57,2.81-1.93,3.72-3.19,27.19-37.49,54.29-75.04,81.41-112.58,34.19-47.31,70.44-100.66,104.6-148"/>
<path class="k" d="M753.17,946.41c-49.15-28.51-98.28-57.06-147.46-85.51-12.94-7.48-25.61-15.44-38.97-22.17l.06-.07c-.12,2.12,1.52,3.35,2.57,4.8,51.45,71.29,102.93,142.57,154.44,213.81,10.55,14.59,21.29,29.05,31.94,43.57,0-50.94,0-101.88,.01-152.81-.86-.55-1.71-1.12-2.59-1.64Z"/>
<polygon class="k" points="756.19 912.48 565.06 800.74 755.92 491.27 946.78 801.01 756.19 912.48"/></svg>